<svg width="30" height="30" viewBox="0 0 30 30" fill="none" xmlns="http://www.w3.org/2000/svg">
<rect x="15" width="21.2132" height="21.2132" rx="0.5934" transform="rotate(45 15 0)" fill="#FFFBFA"/>
<path d="M14.3936 15.0024L28.3716 15.0024C28.5566 15.0024 28.6493 15.2261 28.5184 15.3569L15.1488 28.7266C15.0677 28.8077 14.9362 28.8077 14.8551 28.7266L1.48547 15.3569C1.35463 15.2261 1.4473 15.0024 1.63233 15.0024L14.3936 15.0024Z" fill="#5C75DD"/>
<path d="M14.6948 7.93395H21.5751C21.7602 7.93395 21.8528 8.15766 21.722 8.2885L15.1517 14.8587C15.0706 14.9398 14.9391 14.9399 14.858 14.8587L8.28778 8.2885C8.15695 8.15766 8.24961 7.93395 8.43464 7.93395H14.6948Z" fill="#5C75DD"/>
</svg>
